<svg width="17" height="17" viewBox="0 0 17 17" fill="none" xmlns="http://www.w3.org/2000/svg">
<g clip-path="url(#clip0_361_5378)">
<path d="M0.830167 13.5426C0.298777 14.0738 0.000160473 14.7944 0 15.5458L0 17H1.45421C2.20559 16.9998 2.92615 16.7012 3.45738 16.1698L12.9087 6.71852L10.2815 4.09131L0.830167 13.5426Z" fill="white"/>
<path d="M16.3945 0.605696C16.2221 0.433029 16.0172 0.296052 15.7918 0.202595C15.5663 0.109139 15.3246 0.0610352 15.0806 0.0610352C14.8365 0.0610352 14.5949 0.109139 14.3694 0.202595C14.1439 0.296052 13.9391 0.433029 13.7666 0.605696L11.2832 3.08982L13.9104 5.71703L16.3945 3.23361C16.5672 3.06113 16.7042 2.8563 16.7976 2.63084C16.8911 2.40538 16.9392 2.16371 16.9392 1.91965C16.9392 1.67559 16.8911 1.43393 16.7976 1.20847C16.7042 0.98301 16.5672 0.778183 16.3945 0.605696Z" fill="white"/>
</g>
<defs>
<clipPath id="clip0_361_5378">
<rect width="17" height="17" fill="white"/>
</clipPath>
</defs>
</svg>
