<svg width="84" height="84" viewBox="0 0 84 84" fill="none" xmlns="http://www.w3.org/2000/svg">
<circle opacity="0.05" cx="42" cy="42" r="42" fill="#FF3F70"/>
<circle opacity="0.1" cx="42" cy="42" r="33" fill="#FF3F70"/>
<g clip-path="url(#clip0_1317_8145)">
<path d="M50.5237 42C53.9959 38.9491 56.326 34.8199 57.1344 30.285C57.2874 29.2636 57.2167 28.2215 56.9272 27.2297C56.6377 26.2379 56.1363 25.3199 55.457 24.5383C54.7674 23.7418 53.9128 23.1026 52.9517 22.6645C51.9905 22.2264 50.9455 21.9998 49.888 22H34.3484C33.2911 22.0004 32.2464 22.2276 31.2856 22.6659C30.3247 23.1043 29.4704 23.7435 28.781 24.54C28.1012 25.3222 27.5994 26.2411 27.3099 27.2337C27.0204 28.2264 26.95 29.2695 27.1036 30.2917C27.9082 34.8249 30.237 38.9526 33.7093 42C30.2383 45.0479 27.9107 49.1756 27.107 53.7083C26.9534 54.7305 27.0237 55.7736 27.3132 56.7663C27.6027 57.7589 28.1046 58.6778 28.7844 59.46C29.4734 60.256 30.3272 60.895 31.2874 61.3334C32.2476 61.7717 33.2917 61.9991 34.3484 62H49.888C50.9449 61.9998 51.9893 61.7728 52.9498 61.3348C53.9104 60.8967 54.7644 60.2578 55.4537 59.4617C56.1332 58.6806 56.635 57.7629 56.9245 56.7714C57.214 55.7798 57.2845 54.7378 57.1311 53.7167C56.324 49.1816 53.9951 45.0518 50.5237 42ZM51.6409 56.1983C51.4239 56.4493 51.1549 56.6508 50.8524 56.7892C50.55 56.9275 50.221 56.9994 49.888 57H34.3484C34.0153 56.9997 33.6861 56.9282 33.3833 56.7901C33.0805 56.652 32.8112 56.4508 32.5938 56.2C32.3856 55.9634 32.2317 55.6846 32.1428 55.383C32.0539 55.0814 32.032 54.7642 32.0788 54.4533C32.6441 50.7133 35.0076 47.1817 39.1039 43.9633C39.402 43.7293 39.6429 43.4313 39.8085 43.0915C39.9742 42.7518 40.0602 42.3792 40.0602 42.0017C40.0602 41.6242 39.9742 41.2516 39.8085 40.9118C39.6429 40.5721 39.402 40.274 39.1039 40.04C35.0076 36.82 32.6441 33.2883 32.0788 29.5483C32.032 29.2375 32.0539 28.9203 32.1428 28.6187C32.2317 28.3171 32.3856 28.0383 32.5938 27.8017C32.8111 27.5506 33.0803 27.349 33.3831 27.2107C33.6859 27.0723 34.0151 27.0005 34.3484 27H49.888C50.221 27.0006 50.55 27.0725 50.8524 27.2108C51.1549 27.3492 51.4239 27.5507 51.6409 27.8017C51.8493 28.0373 52.0037 28.315 52.0935 28.6157C52.1833 28.9164 52.2063 29.2329 52.1609 29.5433C51.599 33.2683 49.2338 36.8 45.1308 40.0433C44.8345 40.2775 44.5952 40.575 44.4307 40.9138C44.2663 41.2526 44.1808 41.6239 44.1808 42C44.1808 42.3761 44.2663 42.7474 44.4307 43.0862C44.5952 43.425 44.8345 43.7225 45.1308 43.9567C49.2338 47.2 51.599 50.7317 52.1609 54.4567C52.2069 54.7671 52.1843 55.0837 52.0945 55.3846C52.0046 55.6854 51.8499 55.9631 51.6409 56.1983Z" fill="#FF3F70"/>
<path d="M43.3935 47.355L42.9035 46.9633C42.6471 46.7604 42.3296 46.65 42.0026 46.65C41.6756 46.65 41.3582 46.7604 41.1018 46.9633L40.6018 47.36C39.0817 48.4736 37.8759 49.962 37.1018 51.68C37.0138 51.8998 36.981 52.1378 37.0064 52.3732C37.0317 52.6086 37.1143 52.8342 37.2471 53.0303C37.3798 53.2264 37.5586 53.3869 37.7677 53.4978C37.9769 53.6088 38.21 53.6667 38.4468 53.6667H45.5518C45.7881 53.6655 46.0206 53.6064 46.2288 53.4946C46.437 53.3827 46.6147 53.2216 46.7462 53.0253C46.8778 52.8289 46.9592 52.6034 46.9834 52.3683C47.0077 52.1332 46.9739 51.8957 46.8851 51.6767C46.1109 49.9607 44.9085 48.4725 43.3935 47.355Z" fill="#FF3F70"/>
</g>
<defs>
<clipPath id="clip0_1317_8145">
<rect width="40" height="40" fill="white" transform="translate(22 22)"/>
</clipPath>
</defs>
</svg>
