<svg width="17" height="17" viewBox="0 0 17 17" fill="none" xmlns="http://www.w3.org/2000/svg">
<g clip-path="url(#clip0_277_5404)">
<path d="M13.8125 0H3.1875C2.34241 0.000937427 1.5322 0.337063 0.934632 0.934632C0.337063 1.5322 0.000937427 2.34241 0 3.1875L0 13.8125C0.000937427 14.6576 0.337063 15.4678 0.934632 16.0654C1.5322 16.6629 2.34241 16.9991 3.1875 17H13.8125C14.6576 16.9991 15.4678 16.6629 16.0654 16.0654C16.6629 15.4678 16.9991 14.6576 17 13.8125V3.1875C16.9991 2.34241 16.6629 1.5322 16.0654 0.934632C15.4678 0.337063 14.6576 0.000937427 13.8125 0V0ZM3.1875 2.125H13.8125C14.0943 2.125 14.3645 2.23694 14.5638 2.4362C14.7631 2.63546 14.875 2.90571 14.875 3.1875V13.8125C14.8752 13.952 14.8477 14.0902 14.7942 14.2191C14.7408 14.348 14.6623 14.465 14.5633 14.5633L8.37817 8.37817C7.84684 7.847 7.1263 7.5486 6.375 7.5486C5.6237 7.5486 4.90316 7.847 4.37183 8.37817L2.125 10.625V3.1875C2.125 2.90571 2.23694 2.63546 2.4362 2.4362C2.63546 2.23694 2.90571 2.125 3.1875 2.125Z" fill="#FF3F70"/>
<path d="M10.9788 7.08317C11.9568 7.08317 12.7497 6.29034 12.7497 5.31234C12.7497 4.33433 11.9568 3.5415 10.9788 3.5415C10.0008 3.5415 9.20801 4.33433 9.20801 5.31234C9.20801 6.29034 10.0008 7.08317 10.9788 7.08317Z" fill="#FF3F70"/>
</g>
<defs>
<clipPath id="clip0_277_5404">
<rect width="17" height="17" fill="white"/>
</clipPath>
</defs>
</svg>
