<svg width="12" height="12" viewBox="0 0 12 12" fill="none" xmlns="http://www.w3.org/2000/svg">
<path d="M3.03955 11.2498C3.03973 11.0509 3.11886 10.8603 3.25955 10.7198L7.09555 6.88377C7.21166 6.76769 7.30376 6.62987 7.3666 6.4782C7.42944 6.32652 7.46178 6.16395 7.46178 5.99976C7.46178 5.83559 7.42944 5.67301 7.3666 5.52133C7.30376 5.36966 7.21166 5.23184 7.09555 5.11577L3.26455 1.28226C3.12793 1.14081 3.05234 0.951361 3.05405 0.754713C3.05575 0.558066 3.13463 0.369957 3.27369 0.2309C3.41274 0.0918443 3.60085 0.0129676 3.7975 0.0112588C3.99415 0.00955001 4.1836 0.0851458 4.32505 0.221764L8.15605 4.05226C8.67117 4.5684 8.96047 5.26781 8.96047 5.99701C8.96047 6.72622 8.67117 7.42563 8.15605 7.94177L4.32005 11.7778C4.21531 11.8826 4.08187 11.954 3.93657 11.9831C3.79128 12.0121 3.64063 11.9975 3.50365 11.941C3.36666 11.8845 3.24948 11.7887 3.16688 11.6657C3.08428 11.5427 3.03998 11.3979 3.03955 11.2498Z" fill="#FF3F70"/>
</svg>
