<svg width="23" height="23" viewBox="0 0 23 23" fill="none" xmlns="http://www.w3.org/2000/svg">
<g clip-path="url(#clip0_244_540)">
<path d="M4.65997 2.73623L6.14539 2.31265L6.56897 0.827229C6.63721 0.588876 6.7812 0.379224 6.97917 0.229976C7.17715 0.0807279 7.41833 0 7.66626 0C7.91419 0 8.15538 0.0807279 8.35335 0.229976C8.55132 0.379224 8.69532 0.588876 8.76355 0.827229L9.18714 2.31265L10.6726 2.73623C10.9109 2.80447 11.1206 2.94846 11.2698 3.14643C11.4191 3.34441 11.4998 3.58559 11.4998 3.83352C11.4998 4.08145 11.4191 4.32263 11.2698 4.52061C11.1206 4.71858 10.9109 4.86257 10.6726 4.93081L9.18714 5.35439L8.76355 6.83981C8.69532 7.07816 8.55132 7.28782 8.35335 7.43706C8.15538 7.58631 7.91419 7.66704 7.66626 7.66704C7.41833 7.66704 7.17715 7.58631 6.97917 7.43706C6.7812 7.28782 6.63721 7.07816 6.56897 6.83981L6.14539 5.35439L4.65997 4.93081C4.42162 4.86257 4.21197 4.71858 4.06272 4.52061C3.91347 4.32263 3.83274 4.08145 3.83274 3.83352C3.83274 3.58559 3.91347 3.34441 4.06272 3.14643C4.21197 2.94846 4.42162 2.80447 4.65997 2.73623ZM22.1726 14.2362L20.6871 13.8126L20.2636 12.3272C20.1953 12.0889 20.0513 11.8792 19.8533 11.73C19.6554 11.5807 19.4142 11.5 19.1663 11.5C18.9183 11.5 18.6771 11.5807 18.4792 11.73C18.2812 11.8792 18.1372 12.0889 18.069 12.3272L17.6454 13.8126L16.16 14.2362C15.9216 14.3045 15.712 14.4485 15.5627 14.6464C15.4135 14.8444 15.3327 15.0856 15.3327 15.3335C15.3327 15.5814 15.4135 15.8226 15.5627 16.0206C15.712 16.2186 15.9216 16.3626 16.16 16.4308L17.6454 16.8544L18.069 18.3398C18.1372 18.5782 18.2812 18.7878 18.4792 18.9371C18.6771 19.0863 18.9183 19.167 19.1663 19.167C19.4142 19.167 19.6554 19.0863 19.8533 18.9371C20.0513 18.7878 20.1953 18.5782 20.2636 18.3398L20.6871 16.8544L22.1726 16.4308C22.4109 16.3626 22.6206 16.2186 22.7698 16.0206C22.9191 15.8226 22.9998 15.5814 22.9998 15.3335C22.9998 15.0856 22.9191 14.8444 22.7698 14.6464C22.6206 14.4485 22.4109 14.3045 22.1726 14.2362ZM17.0148 4.31269L18.3143 4.68356L18.6871 5.98402C18.7478 6.1912 18.8739 6.37313 19.0467 6.50256C19.2195 6.63199 19.4296 6.70195 19.6454 6.70195C19.8613 6.70195 20.0714 6.63199 20.2441 6.50256C20.4169 6.37313 20.5431 6.1912 20.6038 5.98402L20.9746 4.68548L22.2761 4.31269C22.4832 4.25201 22.6652 4.12584 22.7946 3.95307C22.924 3.78029 22.994 3.57023 22.994 3.35435C22.994 3.13848 22.924 2.92841 22.7946 2.75564C22.6652 2.58287 22.4832 2.45669 22.2761 2.39602L20.9766 2.02515L20.6038 0.723729C20.5431 0.516553 20.4169 0.334618 20.2441 0.205187C20.0714 0.0757554 19.8613 0.00579801 19.6454 0.00579801C19.4296 0.00579801 19.2195 0.0757554 19.0467 0.205187C18.8739 0.334618 18.7478 0.516553 18.6871 0.723729L18.3162 2.02323L17.0148 2.39602C16.8076 2.45669 16.6257 2.58287 16.4963 2.75564C16.3668 2.92841 16.2969 3.13848 16.2969 3.35435C16.2969 3.57023 16.3668 3.78029 16.4963 3.95307C16.6257 4.12584 16.8076 4.25201 17.0148 4.31269ZM16.4398 12.1212L6.40701 21.9115C5.70038 22.611 4.74559 23.0023 3.7513 23C2.757 22.9977 1.80406 22.6019 1.10072 21.8991C0.396478 21.1932 0.000976563 20.2368 0.000976562 19.2397C0.000976563 18.2426 0.396478 17.2862 1.10072 16.5803L11.1862 6.74015C11.717 6.22178 12.3892 5.87203 13.1183 5.73492C13.8474 5.59781 14.6007 5.67948 15.2835 5.96964C15.9663 6.2598 16.548 6.74548 16.9553 7.36553C17.3626 7.98558 17.5774 8.71229 17.5726 9.45415C17.5711 9.95223 17.47 10.445 17.2751 10.9034C17.0802 11.3617 16.7956 11.7765 16.4379 12.1231L16.4398 12.1212ZM10.5173 13.8836L9.26285 12.6329L3.12089 18.6254C2.95961 18.7923 2.87059 19.0161 2.8731 19.2482C2.87561 19.4803 2.96945 19.7021 3.1343 19.8655C3.30259 20.027 3.52683 20.1172 3.7601 20.1172C3.99336 20.1172 4.2176 20.027 4.38589 19.8655L10.5173 13.8836ZM14.6995 9.43498C14.7005 9.26036 14.6499 9.08935 14.5539 8.94343C14.458 8.79751 14.3211 8.68321 14.1604 8.61489C13.9997 8.54658 13.8224 8.5273 13.6508 8.55949C13.4792 8.59167 13.3209 8.67388 13.1958 8.79577L11.3223 10.6233L12.5748 11.8759L14.4311 10.0627C14.5148 9.98121 14.5814 9.88394 14.6271 9.77652C14.6729 9.66909 14.6968 9.55365 14.6976 9.4369L14.6995 9.43498Z" fill="white"/>
</g>
<defs>
<clipPath id="clip0_244_540">
<rect width="23" height="23" fill="white"/>
</clipPath>
</defs>
</svg>
