<svg width="17" height="17" viewBox="0 0 17 17" fill="none" xmlns="http://www.w3.org/2000/svg">
<path d="M11.3333 8.85417C11.3333 9.13596 11.4453 9.40621 11.6445 9.60547C11.8438 9.80472 12.114 9.91667 12.3958 9.91667H12.9625C13.4697 9.91667 13.9562 10.1182 14.3148 10.4768C14.6735 10.8355 14.875 11.3219 14.875 11.8292V12.9625C14.875 13.4697 14.6735 13.9562 14.3148 14.3148C13.9562 14.6735 13.4697 14.875 12.9625 14.875H4.0375C3.53027 14.875 3.04382 14.6735 2.68516 14.3148C2.32649 13.9562 2.125 13.4697 2.125 12.9625V11.8292C2.125 11.3219 2.32649 10.8355 2.68516 10.4768C3.04382 10.1182 3.53027 9.91667 4.0375 9.91667H4.60417C4.88596 9.91667 5.15621 9.80472 5.35547 9.60547C5.55473 9.40621 5.66667 9.13596 5.66667 8.85417C5.66667 8.57237 5.55473 8.30212 5.35547 8.10287C5.15621 7.90361 4.88596 7.79167 4.60417 7.79167H4.0375C2.96703 7.79279 1.94073 8.21853 1.1838 8.97546C0.426865 9.7324 0.00112503 10.7587 0 11.8292L0 12.9625C0.00112503 14.033 0.426865 15.0593 1.1838 15.8162C1.94073 16.5731 2.96703 16.9989 4.0375 17H12.9625C14.033 16.9989 15.0593 16.5731 15.8162 15.8162C16.5731 15.0593 16.9989 14.033 17 12.9625V11.8292C16.9989 10.7587 16.5731 9.7324 15.8162 8.97546C15.0593 8.21853 14.033 7.79279 12.9625 7.79167H12.3958C12.114 7.79167 11.8438 7.90361 11.6445 8.10287C11.4453 8.30212 11.3333 8.57237 11.3333 8.85417Z" fill="#FF3F70"/>
<path d="M6.74697 1.01911L3.49855 4.26753C3.3999 4.36623 3.32166 4.48339 3.26829 4.61232C3.21492 4.74125 3.18747 4.87943 3.1875 5.01897C3.18753 5.15851 3.21505 5.29668 3.26848 5.42559C3.32191 5.5545 3.40021 5.67162 3.4989 5.77027C3.69822 5.96949 3.96852 6.08138 4.25034 6.08131C4.38988 6.08128 4.52805 6.05376 4.65696 6.00033C4.78586 5.9469 4.90299 5.86861 5.00163 5.76991L7.41776 3.35378L7.43759 12.0415C7.43759 12.3233 7.54953 12.5935 7.74879 12.7928C7.94805 12.9921 8.2183 13.104 8.50009 13.104C8.78189 13.104 9.05214 12.9921 9.2514 12.7928C9.45065 12.5935 9.56259 12.3233 9.56259 12.0415L9.54276 3.31624L11.9986 5.77204C12.1978 5.97136 12.468 6.08337 12.7498 6.08344C13.0317 6.08351 13.302 5.97162 13.5013 5.77239C13.7006 5.57316 13.8126 5.30292 13.8127 5.0211C13.8128 4.73928 13.7009 4.46898 13.5016 4.26966L10.2532 1.02124C9.7881 0.556833 9.15781 0.295817 8.50053 0.29542C7.84326 0.295021 7.21265 0.555272 6.74697 1.01911Z" fill="#FF3F70"/>
</svg>
