<svg width="17" height="20" viewBox="0 0 17 20" fill="none" xmlns="http://www.w3.org/2000/svg">
<path d="M17 3.72611C17 3.04015 16.4811 2.48407 15.8409 2.48407H12.9231C12.4348 0.999723 11.1278 0.00504577 9.65909 0H7.34091C5.87216 0.00504577 4.56518 0.999723 4.07692 2.48407H1.15909C0.518946 2.48407 0 3.04015 0 3.72611C0 4.41206 0.518946 4.96814 1.15909 4.96814H1.54546V15.3185C1.54546 17.8336 3.44825 19.8726 5.79545 19.8726H11.2045C13.5517 19.8726 15.4545 17.8336 15.4545 15.3185V4.96814H15.8409C16.4811 4.96814 17 4.41206 17 3.72611ZM13.1364 15.3185C13.1364 16.4617 12.2715 17.3885 11.2046 17.3885H5.79545C4.72854 17.3885 3.86364 16.4617 3.86364 15.3185V4.96814H13.1364V15.3185Z" fill="#FF453A"/>
<path d="M6.56827 14.9044C7.20841 14.9044 7.72736 14.3483 7.72736 13.6623V8.69418C7.72736 8.00823 7.20841 7.45215 6.56827 7.45215C5.92813 7.45215 5.40918 8.00823 5.40918 8.69418V13.6623C5.40918 14.3483 5.92813 14.9044 6.56827 14.9044Z" fill="#FF453A"/>
<path d="M10.4316 14.9044C11.0717 14.9044 11.5906 14.3483 11.5906 13.6623V8.69418C11.5906 8.00823 11.0717 7.45215 10.4316 7.45215C9.79141 7.45215 9.27246 8.00823 9.27246 8.69418V13.6623C9.27246 14.3483 9.79141 14.9044 10.4316 14.9044Z" fill="#FF453A"/>
</svg>
