<svg width="31" height="26" viewBox="0 0 31 26" fill="none" xmlns="http://www.w3.org/2000/svg">
<g clip-path="url(#clip0_346_4881)">
<path d="M28.8112 10.8333C27.4104 9.22028 25.4124 8.05197 23.1365 7.51506C22.4267 5.30798 20.7385 3.41894 18.4246 2.24274C16.1107 1.06654 13.3503 0.694208 10.7203 1.20356C9.22042 1.49442 7.81483 2.06276 6.60411 2.86793C5.39339 3.6731 4.40745 4.69521 3.71681 5.86114C3.02618 7.02708 2.64792 8.30803 2.60908 9.61237C2.57024 10.9167 2.87178 12.2122 3.49215 13.4062C2.19595 14.1284 1.20075 15.1783 0.647671 16.407C0.0945942 17.6357 0.0117119 18.9809 0.410777 20.2518C0.849487 21.6124 1.81094 22.81 3.14287 23.655C4.4748 24.4999 6.10108 24.9439 7.76416 24.9166H11.0295C11.5377 24.9166 12.0251 24.7454 12.3845 24.4407C12.7439 24.1359 12.9458 23.7226 12.9458 23.2916C12.9458 22.8607 12.7439 22.4473 12.3845 22.1426C12.0251 21.8378 11.5377 21.6666 11.0295 21.6666H7.76416C6.95669 21.6853 6.16426 21.4791 5.50811 21.0795C4.85195 20.68 4.36822 20.1092 4.1309 19.4545C4.00655 19.0671 3.97414 18.6626 4.03555 18.2644C4.09696 17.8663 4.25097 17.4825 4.48864 17.1352C4.72632 16.7879 5.04293 16.4841 5.42012 16.2414C5.7973 15.9987 6.22756 15.8219 6.68593 15.7213C6.98996 15.6548 7.27005 15.5259 7.50157 15.3461C7.7331 15.1662 7.90895 14.9409 8.01368 14.6898C8.1184 14.4388 8.14879 14.1698 8.10216 13.9065C8.05553 13.6432 7.93332 13.3937 7.74627 13.1798C7.13401 12.4795 6.72176 11.6683 6.54197 10.8099C6.36219 9.95158 6.41978 9.06957 6.71021 8.23331C7.02961 7.29764 7.63504 6.4502 8.46515 5.7769C9.29525 5.1036 10.3205 4.62838 11.437 4.39939C11.9664 4.29435 12.5081 4.24092 13.0518 4.24014C14.4895 4.23649 15.8889 4.63306 17.0351 5.36898C18.4413 6.27386 19.3667 7.61493 19.608 9.09781C19.6623 9.45307 19.8527 9.78335 20.15 10.0378C20.4473 10.2923 20.835 10.4568 21.2534 10.5061C22.1375 10.6089 22.9884 10.8608 23.7557 11.2471C24.523 11.6334 25.1912 12.1462 25.7209 12.7551C26.2492 13.365 26.6258 14.0596 26.8278 14.7967C27.0299 15.5338 27.0531 16.298 26.8962 17.043C26.734 17.777 26.3956 18.475 25.902 19.0935C25.4084 19.712 24.7702 20.2379 24.0269 20.6386C23.7616 20.787 23.5439 20.9891 23.3936 21.2266C23.2433 21.4641 23.1651 21.7297 23.1659 21.9992C23.1631 22.2928 23.2532 22.5816 23.4268 22.8356C23.6004 23.0896 23.8512 23.2994 24.153 23.4432C24.4548 23.5871 24.7965 23.6596 25.1426 23.6534C25.4887 23.6471 25.8265 23.5622 26.1208 23.4076C27.3124 22.7588 28.3323 21.9075 29.1162 20.9075C29.9001 19.9075 30.4309 18.7805 30.6751 17.5976C30.9217 16.4219 30.8836 15.2159 30.5631 14.053C30.2427 12.8901 29.6467 11.7947 28.8112 10.8333Z" fill="#564884"/>
<path d="M19.9706 24.3751V18.4167H22.0951C22.3478 18.4167 22.5947 18.3531 22.8047 18.2341C23.0148 18.1151 23.1785 17.9459 23.2751 17.748C23.3718 17.55 23.3971 17.3322 23.3478 17.1221C23.2986 16.912 23.1769 16.719 22.9983 16.5675L18.9576 13.1409C18.718 12.9378 18.3931 12.8237 18.0544 12.8237C17.7156 12.8237 17.3907 12.9378 17.1512 13.1409L13.1104 16.5675C12.9318 16.719 12.8101 16.912 12.7609 17.1221C12.7116 17.3322 12.7369 17.55 12.8336 17.748C12.9302 17.9459 13.0939 18.1151 13.304 18.2341C13.514 18.3531 13.7609 18.4167 14.0136 18.4167H16.1381V24.3751C16.1381 24.8061 16.34 25.2194 16.6993 25.5241C17.0587 25.8289 17.5461 26.0001 18.0544 26.0001C18.5626 26.0001 19.05 25.8289 19.4094 25.5241C19.7687 25.2194 19.9706 24.8061 19.9706 24.3751Z" fill="#564884"/>
</g>
<defs>
<clipPath id="clip0_346_4881">
<rect width="30.6604" height="26" fill="white" transform="translate(0.169922)"/>
</clipPath>
</defs>
</svg>
