<svg width="20" height="20" viewBox="0 0 20 20" fill="none" xmlns="http://www.w3.org/2000/svg">
<path d="M10.0001 6.36418C7.99207 6.36418 6.36426 7.99199 6.36426 10C6.36426 12.008 7.99207 13.6358 10.0001 13.6358C12.0081 13.6358 13.6359 12.008 13.6359 10C13.6336 7.99293 12.0071 6.36645 10.0001 6.36418ZM10.0001 11.1358C9.37277 11.1358 8.86426 10.6273 8.86426 10C8.86426 9.3727 9.37277 8.86418 10.0001 8.86418C10.6274 8.86418 11.1359 9.3727 11.1359 10C11.1355 10.6271 10.6272 11.1354 10.0001 11.1358Z" fill="#564884"/>
<path d="M18.3332 10C18.3319 8.72309 18.035 7.46379 17.4657 6.32082L17.894 6.02332C18.4602 5.62863 18.5994 4.84965 18.2048 4.28332C17.8101 3.71707 17.0311 3.57793 16.4648 3.9725L16.0356 4.27082C14.7632 2.92785 13.0789 2.04801 11.2498 1.77082V1.25C11.2498 0.559648 10.6901 0 9.9998 0C9.30945 0 8.7498 0.559648 8.7498 1.25V1.77082C6.92066 2.04801 5.23636 2.92785 3.96398 4.27082L3.5348 3.9725C2.96847 3.57793 2.18948 3.71711 1.7948 4.28332C1.40023 4.84965 1.53941 5.62863 2.10562 6.02332L2.53394 6.32082C1.3773 8.63723 1.3773 11.3627 2.53394 13.6791L2.10562 13.9766C1.53937 14.3713 1.40023 15.1503 1.7948 15.7166C2.18948 16.2829 2.96847 16.422 3.5348 16.0275L3.96398 15.7291C5.2364 17.0721 6.92066 17.952 8.7498 18.2291V18.75C8.7498 19.4404 9.30945 20 9.9998 20C10.6901 20 11.2498 19.4404 11.2498 18.75V18.2292C13.0789 17.952 14.7632 17.0721 16.0356 15.7292L16.4648 16.0275C17.0311 16.4221 17.8101 16.2829 18.2048 15.7167C18.5994 15.1504 18.4602 14.3714 17.894 13.9767L17.4657 13.6792C18.035 12.5362 18.3319 11.2769 18.3332 10ZM9.99984 15.8333C6.77816 15.8333 4.16652 13.2216 4.16652 10C4.16652 6.77836 6.77816 4.16668 9.99984 4.16668C13.2215 4.16668 15.8332 6.77832 15.8332 10C15.8291 13.22 13.2198 15.8292 9.99984 15.8333Z" fill="#564884"/>
</svg>
