<svg width="20" height="20" viewBox="0 0 20 20" fill="none" xmlns="http://www.w3.org/2000/svg">
<g clip-path="url(#clip0_378_7699)">
<path d="M14.5836 20C7.79273 20.1917 -4.2306 8.15421 1.55273 1.61504C1.57357 1.59504 2.4619 0.820039 2.4619 0.820039C3.01183 0.288405 3.7486 -0.00592264 4.51347 0.000468149C5.27834 0.00685894 6.01009 0.313456 6.55107 0.854205L8.34523 2.78671C8.87323 3.33873 9.16521 4.07486 9.15914 4.83872C9.15308 5.60258 8.84944 6.33397 8.31273 6.87754L7.98857 7.20587C8.95208 9.33826 10.6564 11.0488 12.7852 12.02L13.1269 11.6867C13.6822 11.1572 14.42 10.8619 15.1873 10.8619C15.9546 10.8619 16.6924 11.1572 17.2477 11.6867L19.1127 13.4167C19.666 13.9556 19.9836 14.6914 19.9963 15.4636C20.0089 16.2358 19.7156 16.9817 19.1802 17.5384C19.1802 17.5384 18.4052 18.4275 18.3852 18.4484C17.8855 18.9454 17.2922 19.3384 16.6397 19.6047C15.9872 19.8711 15.2883 20.0054 14.5836 20ZM3.2919 3.41671C-0.758102 8.43087 12.2027 20.6442 16.5877 16.7084C16.5877 16.7084 17.3577 15.8259 17.3786 15.805C17.419 15.7674 17.4512 15.7219 17.4733 15.6713C17.4953 15.6207 17.5067 15.5661 17.5067 15.5109C17.5067 15.4557 17.4953 15.401 17.4733 15.3504C17.4512 15.2998 17.419 15.2543 17.3786 15.2167L15.5136 13.4884C15.2636 13.28 15.1236 13.2775 14.8902 13.455L13.9444 14.3859C13.7736 14.5539 13.5582 14.6692 13.3238 14.7183C13.0893 14.7673 12.8457 14.748 12.6219 14.6625C10.9592 14.0441 9.44886 13.0754 8.19336 11.822C6.93786 10.5687 5.96654 9.06003 5.34523 7.39837C5.25453 7.17275 5.2316 6.92557 5.27926 6.68712C5.32693 6.44867 5.4431 6.22929 5.61357 6.05587L6.53773 5.11671C6.57985 5.07958 6.61372 5.03403 6.63715 4.983C6.66058 4.93197 6.67305 4.8766 6.67375 4.82045C6.67446 4.76431 6.66339 4.70864 6.64125 4.65704C6.61911 4.60544 6.5864 4.55905 6.54523 4.52087L4.75023 2.58837C4.66973 2.52416 4.5683 2.49203 4.4655 2.49818C4.36271 2.50434 4.26583 2.54834 4.19357 2.62171C4.1744 2.64254 3.2919 3.41671 3.2919 3.41671ZM19.7086 9.11087C20.0623 7.88761 20.0814 6.59188 19.764 5.35871C19.4465 4.12554 18.8042 3.00009 17.9038 2.09964C17.0034 1.19919 15.878 0.556711 14.6449 0.239163C13.4118 -0.0783844 12.116 -0.0593766 10.8927 0.294205C10.7354 0.341153 10.5889 0.418626 10.4615 0.522201C10.3342 0.625776 10.2284 0.753424 10.1504 0.897858C10.0723 1.04229 10.0235 1.20068 10.0067 1.36399C9.98987 1.52729 10.0054 1.69231 10.0523 1.84962C10.0993 2.00693 10.1767 2.15346 10.2803 2.28083C10.3839 2.4082 10.5115 2.51393 10.656 2.59197C10.8004 2.67001 10.9588 2.71884 11.1221 2.73566C11.2854 2.75249 11.4504 2.73699 11.6077 2.69004C12.3988 2.46389 13.2359 2.45344 14.0324 2.65979C14.8289 2.86613 15.5556 3.28176 16.1374 3.86357C16.7191 4.44539 17.1346 5.17222 17.3408 5.96871C17.5471 6.76519 17.5365 7.60234 17.3102 8.39337C17.2634 8.55074 17.2479 8.7158 17.2649 8.87913C17.2818 9.04245 17.3307 9.20084 17.4089 9.34524C17.4871 9.48965 17.5929 9.61724 17.7204 9.72073C17.8479 9.82421 17.9945 9.90157 18.1519 9.94837C18.268 9.9826 18.3884 10 18.5094 10C18.7784 9.99974 19.0402 9.91265 19.2558 9.75171C19.4714 9.59077 19.6293 9.36456 19.7061 9.10671L19.7086 9.11087ZM15.0536 9.22171C15.1697 9.10562 15.2619 8.96779 15.3247 8.81608C15.3876 8.66437 15.42 8.50176 15.42 8.33754C15.42 8.17332 15.3876 8.01071 15.3247 7.859C15.2619 7.70729 15.1697 7.56946 15.0536 7.45337L14.1669 6.56587V5.41671C14.1669 5.08519 14.0352 4.76724 13.8008 4.53282C13.5664 4.2984 13.2484 4.16671 12.9169 4.16671C12.5854 4.16671 12.2674 4.2984 12.033 4.53282C11.7986 4.76724 11.6669 5.08519 11.6669 5.41671V7.08337C11.6668 7.24755 11.6991 7.41014 11.7619 7.56185C11.8246 7.71355 11.9167 7.85141 12.0327 7.96754L13.2827 9.21754C13.3988 9.3337 13.5366 9.42584 13.6884 9.48871C13.8401 9.55158 14.0027 9.58394 14.1669 9.58394C14.3311 9.58394 14.4937 9.55158 14.6454 9.48871C14.7971 9.42584 14.935 9.3337 15.0511 9.21754L15.0536 9.22171Z" fill="#564884"/>
</g>
<defs>
<clipPath id="clip0_378_7699">
<rect width="20" height="20" fill="white"/>
</clipPath>
</defs>
</svg>
