<svg width="84" height="84" viewBox="0 0 84 84" fill="none" xmlns="http://www.w3.org/2000/svg">
<circle opacity="0.05" cx="42" cy="42" r="42" fill="#FF3F70"/>
<circle opacity="0.1" cx="42" cy="42" r="33" fill="#FF3F70"/>
<g clip-path="url(#clip0_918_7895)">
<path d="M56.9997 28.6667H51.833C51.4462 26.7857 50.4227 25.0956 48.9351 23.8812C47.4475 22.6668 45.5867 22.0024 43.6663 22L40.333 22C38.4127 22.0024 36.5519 22.6668 35.0643 23.8812C33.5766 25.0956 32.5532 26.7857 32.1663 28.6667H26.9997C26.5576 28.6667 26.1337 28.8423 25.8212 29.1548C25.5086 29.4674 25.333 29.8913 25.333 30.3333C25.333 30.7754 25.5086 31.1993 25.8212 31.5118C26.1337 31.8244 26.5576 32 26.9997 32H28.6663V53.6667C28.669 55.876 29.5478 57.9941 31.11 59.5563C32.6723 61.1185 34.7903 61.9974 36.9997 62H46.9997C49.209 61.9974 51.3271 61.1185 52.8893 59.5563C54.4515 57.9941 55.3304 55.876 55.333 53.6667V32H56.9997C57.4417 32 57.8656 31.8244 58.1782 31.5118C58.4907 31.1993 58.6663 30.7754 58.6663 30.3333C58.6663 29.8913 58.4907 29.4674 58.1782 29.1548C57.8656 28.8423 57.4417 28.6667 56.9997 28.6667V28.6667ZM40.333 25.3333H43.6663C44.7001 25.3346 45.7082 25.6556 46.5524 26.2524C47.3965 26.8492 48.0354 27.6925 48.3813 28.6667H35.618C35.964 27.6925 36.6028 26.8492 37.447 26.2524C38.2911 25.6556 39.2992 25.3346 40.333 25.3333V25.3333ZM51.9997 53.6667C51.9997 54.9927 51.4729 56.2645 50.5352 57.2022C49.5975 58.1399 48.3258 58.6667 46.9997 58.6667H36.9997C35.6736 58.6667 34.4018 58.1399 33.4641 57.2022C32.5265 56.2645 31.9997 54.9927 31.9997 53.6667V32H51.9997V53.6667Z" fill="#FF3F70"/>
<path d="M38.6667 51.9988C39.1087 51.9988 39.5326 51.8232 39.8452 51.5107C40.1577 51.1981 40.3333 50.7742 40.3333 50.3322V40.3322C40.3333 39.8902 40.1577 39.4662 39.8452 39.1537C39.5326 38.8411 39.1087 38.6655 38.6667 38.6655C38.2246 38.6655 37.8007 38.8411 37.4882 39.1537C37.1756 39.4662 37 39.8902 37 40.3322V50.3322C37 50.7742 37.1756 51.1981 37.4882 51.5107C37.8007 51.8232 38.2246 51.9988 38.6667 51.9988Z" fill="#FF3F70"/>
<path d="M45.3327 51.9988C45.7747 51.9988 46.1986 51.8232 46.5112 51.5107C46.8238 51.1981 46.9994 50.7742 46.9994 50.3322V40.3322C46.9994 39.8902 46.8238 39.4662 46.5112 39.1537C46.1986 38.8411 45.7747 38.6655 45.3327 38.6655C44.8907 38.6655 44.4667 38.8411 44.1542 39.1537C43.8416 39.4662 43.666 39.8902 43.666 40.3322V50.3322C43.666 50.7742 43.8416 51.1981 44.1542 51.5107C44.4667 51.8232 44.8907 51.9988 45.3327 51.9988Z" fill="#FF3F70"/>
</g>
<defs>
<clipPath id="clip0_918_7895">
<rect width="40" height="40" fill="white" transform="translate(22 22)"/>
</clipPath>
</defs>
</svg>
