<svg width="20" height="20" viewBox="0 0 20 20" fill="none" xmlns="http://www.w3.org/2000/svg">
<path d="M9.54361 11.6817C5.99217 12.0027 3.28647 15.0036 3.33361 18.5692V18.75C3.33361 19.4404 3.89326 20 4.58361 20C5.27397 20 5.83361 19.4404 5.83361 18.75V18.5192C5.79604 16.3299 7.41166 14.463 9.58361 14.1859C11.8763 13.9585 13.9192 15.6328 14.1466 17.9255C14.16 18.0611 14.1668 18.1971 14.1669 18.3334V18.75C14.1669 19.4404 14.7266 20 15.4169 20C16.1073 20 16.6669 19.4404 16.6669 18.75V18.3333C16.6629 14.6473 13.6714 11.6625 9.98541 11.6665C9.83803 11.6667 9.69068 11.6718 9.54361 11.6817Z" fill="#564884"/>
<path d="M10 10C12.7614 10 15 7.76141 15 5C15 2.23859 12.7614 0 10 0C7.23859 0 5 2.23859 5 5C5.00273 7.76027 7.23973 9.99723 10 10ZM10 2.5C11.3807 2.5 12.5 3.6193 12.5 5C12.5 6.3807 11.3807 7.5 10 7.5C8.6193 7.5 7.5 6.3807 7.5 5C7.5 3.6193 8.6193 2.5 10 2.5Z" fill="#564884"/>
</svg>
