<svg width="20" height="20" viewBox="0 0 20 20" fill="none" xmlns="http://www.w3.org/2000/svg">
<g clip-path="url(#clip0_378_7695)">
<path d="M15.4167 0.833374H4.58333C3.36816 0.834697 2.20314 1.31801 1.34389 2.17726C0.484634 3.03652 0.00132347 4.20154 0 5.41671L0 14.5834C0.00132347 15.7985 0.484634 16.9636 1.34389 17.8228C2.20314 18.6821 3.36816 19.1654 4.58333 19.1667H15.4167C16.6318 19.1654 17.7969 18.6821 18.6561 17.8228C19.5154 16.9636 19.9987 15.7985 20 14.5834V5.41671C19.9987 4.20154 19.5154 3.03652 18.6561 2.17726C17.7969 1.31801 16.6318 0.834697 15.4167 0.833374ZM15.4167 3.33337C15.9221 3.33506 16.4092 3.52216 16.7858 3.85921L11.3692 9.27587C11.0013 9.62726 10.5121 9.82334 10.0033 9.82334C9.49458 9.82334 9.0054 9.62726 8.6375 9.27587L3.22083 3.85921C3.59571 3.52368 4.08025 3.33668 4.58333 3.33337H15.4167ZM15.4167 16.6667H4.58333C4.0308 16.6667 3.5009 16.4472 3.11019 16.0565C2.71949 15.6658 2.5 15.1359 2.5 14.5834V6.68087L6.86583 11.0467C7.2773 11.4584 7.76584 11.7849 8.30353 12.0077C8.84123 12.2305 9.41756 12.3451 9.99958 12.3451C10.5816 12.3451 11.1579 12.2305 11.6956 12.0077C12.2333 11.7849 12.7219 11.4584 13.1333 11.0467L17.5 6.68087V14.5834C17.5 15.1359 17.2805 15.6658 16.8898 16.0565C16.4991 16.4472 15.9692 16.6667 15.4167 16.6667Z" fill="#564884"/>
</g>
<defs>
<clipPath id="clip0_378_7695">
<rect width="20" height="20" fill="white"/>
</clipPath>
</defs>
</svg>
