<svg width="9" height="16" viewBox="0 0 9 16" fill="none" xmlns="http://www.w3.org/2000/svg">
<path d="M7.87502 6.74997L3.37502 2.24998L2.37502 1.24998C1.87502 0.750064 0.875022 0.749952 0.375021 1.24998C-0.12498 1.75 -0.125033 2.75006 0.375021 3.24998L4.85241 7.72736C4.86921 7.74416 4.88333 7.75864 4.89906 7.77645C5.04603 7.94287 5.05387 8.04659 4.89979 8.22254C4.88362 8.24101 4.86897 8.25602 4.85161 8.27338L0.375021 12.75C-0.124934 13.25 -0.124961 14.25 0.37502 14.75C0.875 15.25 1.87498 15.25 2.37502 14.75L7.8109 9.3141C7.85462 9.27038 7.89463 9.22601 7.93378 9.17816L7.99252 9.10636C8.56446 8.40733 8.51366 7.38864 7.87502 6.74997Z" fill="white" fill-opacity="0.5"/>
</svg>
