<svg width="20" height="20" viewBox="0 0 20 20" fill="none" xmlns="http://www.w3.org/2000/svg">
<path d="M2.91699 4.58339H17.0837C17.774 4.58339 18.3337 5.14304 18.3337 5.83339C18.3337 6.52374 17.774 7.08339 17.0837 7.08339H2.91699C2.22664 7.08339 1.66699 6.52374 1.66699 5.83339C1.66699 5.14304 2.22664 4.58339 2.91699 4.58339Z" fill="#564884"/>
<path d="M2.91699 0.416748H17.0837C17.774 0.416748 18.3337 0.976396 18.3337 1.66675C18.3337 2.3571 17.774 2.91675 17.0837 2.91675H2.91699C2.22664 2.91675 1.66699 2.3571 1.66699 1.66675C1.66699 0.976396 2.22664 0.416748 2.91699 0.416748Z" fill="#564884"/>
<path d="M15.4167 19.5834H4.58332C2.05316 19.5807 0.00277344 17.5302 0 15.0001V11.6667C0 10.0559 1.30582 8.75007 2.91668 8.75007H5.83336C6.52371 8.75007 7.08336 9.30972 7.08336 10.0001C7.08336 11.1507 8.01609 12.0834 9.16668 12.0834H10.8334C11.9839 12.0834 12.9167 11.1507 12.9167 10.0001C12.9167 9.30972 13.4763 8.75007 14.1667 8.75007H17.0834C18.6942 8.75007 20 10.0559 20 11.6667V15.0001C19.9972 17.5302 17.9468 19.5807 15.4167 19.5834ZM2.91668 11.2501C2.68656 11.2501 2.5 11.4366 2.5 11.6667V15.0001C2.5 16.1507 3.43273 17.0834 4.58332 17.0834H15.4166C16.5673 17.0834 17.5 16.1507 17.5 15.0001V11.6667C17.5 11.4366 17.3134 11.2501 17.0833 11.2501H15.2433C14.682 13.2209 12.8825 14.581 10.8333 14.5834H9.16664C7.11746 14.581 5.31793 13.2209 4.75664 11.2501H2.91668Z" fill="#564884"/>
</svg>
