<svg width="12" height="12" viewBox="0 0 12 12" fill="none" xmlns="http://www.w3.org/2000/svg">
<g clip-path="url(#clip0_277_5392)">
<path d="M7.75 0H7.406C7.20709 0 7.01632 0.0790176 6.87567 0.21967C6.73502 0.360322 6.656 0.551088 6.656 0.75C6.65842 0.837704 6.64324 0.925004 6.61135 1.00674C6.57946 1.08848 6.5315 1.16299 6.47033 1.22588C6.40915 1.28877 6.33599 1.33876 6.25516 1.3729C6.17434 1.40703 6.08749 1.42462 5.99975 1.42462C5.91201 1.42462 5.82516 1.40703 5.74434 1.3729C5.66351 1.33876 5.59035 1.28877 5.52917 1.22588C5.46799 1.16299 5.42004 1.08848 5.38815 1.00674C5.35626 0.925004 5.34108 0.837704 5.3435 0.75C5.3435 0.551088 5.26448 0.360322 5.12383 0.21967C4.98318 0.0790176 4.79241 0 4.5935 0L4.25 0C3.5209 0.000794085 2.82189 0.29078 2.30633 0.806333C1.79078 1.32189 1.50079 2.0209 1.5 2.75V10.25C1.5 10.7141 1.68437 11.1592 2.01256 11.4874C2.34075 11.8156 2.78587 12 3.25 12H4.5935C4.79241 12 4.98318 11.921 5.12383 11.7803C5.26448 11.6397 5.3435 11.4489 5.3435 11.25C5.34108 11.1623 5.35626 11.075 5.38815 10.9933C5.42004 10.9115 5.46799 10.837 5.52917 10.7741C5.59035 10.7112 5.66351 10.6612 5.74434 10.6271C5.82516 10.593 5.91201 10.5754 5.99975 10.5754C6.08749 10.5754 6.17434 10.593 6.25516 10.6271C6.33599 10.6612 6.40915 10.7112 6.47033 10.7741C6.5315 10.837 6.57946 10.9115 6.61135 10.9933C6.64324 11.075 6.65842 11.1623 6.656 11.25C6.656 11.4489 6.73502 11.6397 6.87567 11.7803C7.01632 11.921 7.20709 12 7.406 12H8.75C9.21413 12 9.65925 11.8156 9.98744 11.4874C10.3156 11.1592 10.5 10.7141 10.5 10.25V2.75C10.4992 2.0209 10.2092 1.32189 9.69367 0.806333C9.17811 0.29078 8.4791 0.000794085 7.75 0V0ZM8.75 10.5H8.025C7.87596 10.0822 7.60135 9.72077 7.23881 9.46518C6.87628 9.2096 6.44357 9.07241 6 9.07241C5.55643 9.07241 5.12372 9.2096 4.76119 9.46518C4.39865 9.72077 4.12404 10.0822 3.975 10.5H3.25C3.1837 10.5 3.12011 10.4737 3.07322 10.4268C3.02634 10.3799 3 10.3163 3 10.25V8H3.25C3.44891 8 3.63968 7.92098 3.78033 7.78033C3.92098 7.63968 4 7.44891 4 7.25C4 7.05109 3.92098 6.86032 3.78033 6.71967C3.63968 6.57902 3.44891 6.5 3.25 6.5H3V2.75C3.00004 2.46446 3.09785 2.18754 3.27715 1.9653C3.45644 1.74307 3.70642 1.58892 3.9855 1.5285C4.13865 1.93922 4.41369 2.29331 4.77374 2.54331C5.13379 2.79332 5.56166 2.92731 6 2.92731C6.43834 2.92731 6.86621 2.79332 7.22626 2.54331C7.58631 2.29331 7.86135 1.93922 8.0145 1.5285C8.29358 1.58892 8.54356 1.74307 8.72285 1.9653C8.90215 2.18754 8.99996 2.46446 9 2.75V6.5H8.75C8.55109 6.5 8.36032 6.57902 8.21967 6.71967C8.07902 6.86032 8 7.05109 8 7.25C8 7.44891 8.07902 7.63968 8.21967 7.78033C8.36032 7.92098 8.55109 8 8.75 8H9V10.25C9 10.3163 8.97366 10.3799 8.92678 10.4268C8.87989 10.4737 8.8163 10.5 8.75 10.5Z" fill="#FF3F70"/>
<path d="M6.25 6.5H5.75C5.33579 6.5 5 6.83579 5 7.25C5 7.66421 5.33579 8 5.75 8H6.25C6.66421 8 7 7.66421 7 7.25C7 6.83579 6.66421 6.5 6.25 6.5Z" fill="#FF3F70"/>
</g>
<defs>
<clipPath id="clip0_277_5392">
<rect width="12" height="12" fill="white"/>
</clipPath>
</defs>
</svg>
