<svg width="24" height="24" viewBox="0 0 24 24" fill="none" xmlns="http://www.w3.org/2000/svg">
<g clip-path="url(#clip0_327_10201)">
<path d="M22.0007 11.5L22.5007 11.5L22.5007 11L22.5007 5.99999C22.5007 5.86738 22.5534 5.7402 22.6471 5.64643C22.7409 5.55267 22.8681 5.49999 23.0007 5.49999C23.1333 5.49999 23.2605 5.55266 23.3543 5.64643C23.448 5.7402 23.5007 5.86738 23.5007 5.99999L23.5007 18C23.5007 18.1326 23.448 18.2598 23.3543 18.3535C23.2605 18.4473 23.1333 18.5 23.0007 18.5C22.8681 18.5 22.7409 18.4473 22.6472 18.3535C22.5534 18.2598 22.5007 18.1326 22.5007 18L22.5007 13L22.5007 12.5L22.0007 12.5L2.82771 12.5L1.62061 12.5L2.47416 13.3535L6.77416 17.6535L6.77466 17.654C6.8688 17.7479 6.92179 17.8753 6.92198 18.0083C6.92216 18.1412 6.86953 18.2688 6.77566 18.3629C6.68179 18.4571 6.55436 18.5101 6.42142 18.5103C6.28851 18.5104 6.16098 18.4578 6.06685 18.364C6.06682 18.364 6.06679 18.364 6.06677 18.3639L1.11727 13.4144L1.11722 13.4144C0.931449 13.2287 0.784083 13.0082 0.683541 12.7655L0.221614 12.9568L0.683541 12.7655C0.582999 12.5228 0.53125 12.2627 0.53125 12C0.53125 11.7373 0.582999 11.4772 0.683541 11.2345C0.784083 10.9918 0.93145 10.7713 1.11722 10.5856L1.11727 10.5855L6.05966 5.64315C6.15367 5.55364 6.27887 5.50417 6.40877 5.50529C6.53986 5.50643 6.66527 5.55902 6.75798 5.65172C6.85068 5.74443 6.90327 5.86983 6.90441 6.00093C6.90553 6.13084 6.85606 6.25604 6.76654 6.35005L2.47016 10.6464L1.61661 11.5L2.82371 11.5L22.0007 11.5Z" fill="#564884" stroke="#564884"/>
</g>
<defs>
<clipPath id="clip0_327_10201">
<rect width="24" height="24" fill="white" transform="translate(0 24) rotate(-90)"/>
</clipPath>
</defs>
</svg>
