<svg width="16" height="18" viewBox="0 0 16 18" fill="none" xmlns="http://www.w3.org/2000/svg">
<path d="M8 17.9998C7.82525 17.9999 7.65291 17.959 7.49675 17.8806L7.21175 17.7373C5.639 16.9498 0.500001 14.0031 0.500001 9.11308V5.28808C0.499404 4.45601 0.761263 3.64496 1.24831 2.97033C1.73536 2.29571 2.42278 1.79189 3.21275 1.53058L7.646 0.0568282C7.87592 -0.0189427 8.12408 -0.0189427 8.354 0.0568282L12.7873 1.52683C13.5772 1.78814 14.2646 2.29196 14.7517 2.96658C15.2387 3.64121 15.5006 4.45226 15.5 5.28433V9.10933C15.5 14.6368 10.3085 17.1553 8.71775 17.7951L8.42225 17.9143C8.28838 17.9699 8.14496 17.999 8 17.9998ZM8 2.30983L3.92075 3.65983C3.57925 3.77259 3.28214 3.99041 3.07187 4.28217C2.8616 4.57393 2.74895 4.9247 2.75 5.28433V9.10933C2.75 12.5646 6.60725 14.8881 8.051 15.6343C9.476 15.0283 13.25 13.0513 13.25 9.10933V5.28433C13.2504 4.92521 13.1375 4.57512 12.9273 4.28396C12.717 3.9928 12.4203 3.77543 12.0793 3.66283L8 2.30983ZM9.125 9.37483V4.87483C9.125 4.57646 9.00647 4.29031 8.7955 4.07933C8.58452 3.86835 8.29837 3.74983 8 3.74983C7.70163 3.74983 7.41548 3.86835 7.20451 4.07933C6.99353 4.29031 6.875 4.57646 6.875 4.87483V9.37483C6.875 9.6732 6.99353 9.95934 7.20451 10.1703C7.41548 10.3813 7.70163 10.4998 8 10.4998C8.29837 10.4998 8.58452 10.3813 8.7955 10.1703C9.00647 9.95934 9.125 9.6732 9.125 9.37483ZM8 11.2498C7.7775 11.2498 7.55999 11.3158 7.37498 11.4394C7.18998 11.563 7.04578 11.7387 6.96064 11.9443C6.87549 12.1499 6.85321 12.3761 6.89662 12.5943C6.94003 12.8125 7.04717 13.013 7.20451 13.1703C7.36184 13.3277 7.56229 13.4348 7.78052 13.4782C7.99875 13.5216 8.22495 13.4993 8.43052 13.4142C8.63609 13.329 8.81179 13.1848 8.9354 12.9998C9.05902 12.8148 9.125 12.5973 9.125 12.3748C9.125 12.0765 9.00647 11.7903 8.7955 11.5793C8.58452 11.3684 8.29837 11.2498 8 11.2498Z" fill="#FF3F70"/>
</svg>
