<svg width="20" height="20" viewBox="0 0 20 20" fill="none" xmlns="http://www.w3.org/2000/svg">
<path d="M15.8843 6.54511C15.7682 6.42895 15.6304 6.33681 15.4786 6.27394C15.3269 6.21107 15.1643 6.17871 15.0001 6.17871C14.8359 6.17871 14.6733 6.21107 14.5216 6.27394C14.3699 6.33681 14.232 6.42895 14.1159 6.54511L10.2943 10.3659C10.2161 10.4441 10.1102 10.4879 9.99969 10.4879C9.8892 10.4879 9.78324 10.4441 9.70511 10.3659L5.88427 6.54511C5.64989 6.31062 5.33195 6.17883 5.0004 6.17875C4.66885 6.17868 4.35085 6.31031 4.11636 6.54469C3.88186 6.77908 3.75008 7.09702 3.75 7.42857C3.74992 7.76011 3.88155 8.07812 4.11594 8.31261L7.93761 12.1343C8.20845 12.4051 8.52999 12.62 8.88388 12.7666C9.23776 12.9132 9.61706 12.9887 10.0001 12.9887C10.3832 12.9887 10.7624 12.9132 11.1163 12.7666C11.4702 12.62 11.7918 12.4051 12.0626 12.1343L15.8843 8.31261C16.1186 8.0782 16.2503 7.76032 16.2503 7.42886C16.2503 7.09741 16.1186 6.77952 15.8843 6.54511Z" fill="#564884"/>
</svg>
